<svg width="470" height="125" xmlns="http://www.w3.org/2000/svg">

 <g>
  <title>Layer 1</title>
  <path stroke="#000000" fill="#000000" id="Path" d="m63.5,110.75c0.6,0 1.17,0.24 1.59,0.66c0.42,0.42 0.66,0.99 0.66,1.59c0,0.6 -0.24,1.17 -0.66,1.59c-0.42,0.42 -0.99,0.66 -1.59,0.66c-10.54,0 -20.66,-4.19 -28.11,-11.64c-7.45,-7.45 -11.64,-17.57 -11.64,-28.11c0,-10.54 4.19,-20.66 11.64,-28.11c7.45,-7.45 17.57,-11.64 28.11,-11.64c4.03,0 8.05,0.61 11.9,1.81c0.57,0.18 1.04,0.58 1.32,1.11c0.27,0.53 0.33,1.14 0.15,1.71c-0.18,0.57 -0.57,1.05 -1.1,1.33c-0.53,0.27 -1.15,0.33 -1.72,0.15c-3.41,-1.07 -6.97,-1.61 -10.55,-1.61c-9.34,0 -18.32,3.72 -24.93,10.32c-6.6,6.61 -10.32,15.58 -10.32,24.93c0,9.35 3.72,18.32 10.32,24.93c6.61,6.6 15.58,10.32 24.93,10.32z"/>
  <path stroke="#000000" fill="#000000" id="Path" d="m63.2,37.98c-0.3,0.51 -0.8,0.89 -1.38,1.04c-0.57,0.15 -1.19,0.06 -1.7,-0.24c-0.52,-0.3 -0.89,-0.79 -1.04,-1.37c-0.15,-0.58 -0.07,-1.19 0.24,-1.71c3.02,-5.15 7.31,-9.44 12.46,-12.46c5.32,-3.12 11.37,-4.75 17.54,-4.75c8.09,0 15.93,2.82 22.15,7.99c6.14,5.07 10.35,12.1 11.92,19.91c0.12,0.58 0,1.19 -0.33,1.69c-0.33,0.5 -0.85,0.84 -1.43,0.96c-0.59,0.12 -1.19,0 -1.69,-0.33c-0.5,-0.33 -0.84,-0.85 -0.96,-1.43c-1.37,-6.8 -5.03,-12.92 -10.38,-17.34c-5.42,-4.49 -12.24,-6.95 -19.28,-6.95c-5.37,0 -10.64,1.42 -15.26,4.13c-4.49,2.63 -8.23,6.37 -10.86,10.86z"/>
  <path stroke="#000000" fill="#000000" id="Path" d="m117.77,36.53017c-0.45,0.4 -1.03,0.61 -1.63,0.58c-0.59,-0.03 -1.15,-0.3 -1.55,-0.74c-0.4,-0.44 -0.61,-1.02 -0.58,-1.62c0.03,-0.6 0.3,-1.16 0.74,-1.56c5,-4.52 11.51,-7.02 18.26,-7.02c7.22,0 14.15,2.87 19.26,7.98c5.11,5.11 7.98,12.04 7.99,19.26c0,0 0,0 0,0.01l0,0c0,0.6 -0.24,1.17 -0.66,1.59c-0.43,0.42 -1,0.66 -1.59,0.66c-0.6,0 -1.17,-0.24 -1.6,-0.66c-0.42,-0.42 -0.65,-0.99 -0.65,-1.59l0,-0.01c-0.01,-6.03 -2.4,-11.82 -6.67,-16.08c-4.26,-4.26 -10.05,-6.66 -16.08,-6.66c-5.63,0 -11.07,2.09 -15.24,5.86z"/>
  <path stroke="#000000" fill="#000000" id="Path" d="m158.33,55.34c-0.59,0.05 -1.18,-0.14 -1.64,-0.53c-0.45,-0.38 -0.73,-0.93 -0.78,-1.53c-0.05,-0.59 0.14,-1.18 0.53,-1.64c0.38,-0.45 0.93,-0.73 1.53,-0.78c0.88,-0.07 1.76,-0.11 2.64,-0.11c8.55,0 16.76,3.4 22.8,9.45c6.05,6.04 9.45,14.25 9.45,22.8c0,8.55 -3.4,16.76 -9.45,22.8c-6.04,6.05 -14.25,9.45 -22.8,9.45c-0.6,0 -1.17,-0.24 -1.59,-0.66c-0.42,-0.42 -0.66,-0.99 -0.66,-1.59c0,-0.6 0.24,-1.17 0.66,-1.59c0.42,-0.42 0.99,-0.66 1.59,-0.66c7.36,0 14.42,-2.93 19.62,-8.13c5.2,-5.2 8.13,-12.26 8.13,-19.62c0,-7.36 -2.93,-14.42 -8.13,-19.62c-5.2,-5.2 -12.26,-8.13 -19.62,-8.13c-0.76,0 -1.52,0.03 -2.28,0.09z"/>
  <path fill="#000000" id="Compound Path" d="m104.525,56.5l7.54,0l-18.72,45.5l-4.875,0l-12.545,-29.055l-12.675,29.055l-5.395,0l-16.77,-45.5l7.735,0l9.62,26.715l0,0q0.65,1.885 1.333,3.965l0,0l0,0q0.682,2.08 1.267,4.095l0,0l0,0q0.78,-2.015 1.658,-4.095l0,0l0,0q0.877,-2.08 1.722,-3.965l0,0l8.385,-18.85l6.76,0l8.125,18.72l0,0q0.78,1.82 1.658,3.9l0,0l0,0q0.877,2.08 1.657,4.03l0,0l0,0q0.65,-2.08 1.365,-4.225l0,0l0,0q0.715,-2.145 1.495,-4.03l0,0l10.66,-26.26l0,0zm32.825,45.565l-9.49,-0.065l17.16,-18.005l-15.925,-16.12l10.075,0l11.31,12.545l12.22,-12.545l9.555,0l-17.42,16.965l17.94,17.16l-9.815,0l-13.585,-13.585l-12.025,13.65l0,0z"/>
  <path stroke-opacity="0" stroke="#000000" fill="#000000" id="Compound Path" d="m207.80083,56.30383l24.83,0l0,0q8.58,0 12.935,2.925l0,0l0,0q4.355,2.925 4.355,8.515l0,0l0,0q0,3.055 -1.787,5.493l0,0l0,0q-1.788,2.437 -5.298,3.737l0,0l0,0q2.535,0.78 4.68,2.21l0,0l0,0q2.145,1.43 3.478,3.705l0,0l0,0q1.332,2.275 1.332,5.525l0,0l0,0q0,3.965 -1.592,6.565l0,0l0,0q-1.593,2.6 -4.225,4.095l0,0l0,0q-2.633,1.495 -5.818,2.113l0,0l0,0q-3.185,0.617 -6.37,0.617l0,0l-26.52,0l0,-45.5l0,0zm25.35,6.76l0,0l-18.33,0l0,11.7l19.11,0l0,0q2.34,-0.065 4.355,-0.747l0,0l0,0q2.015,-0.683 3.218,-2.015l0,0l0,0q1.202,-1.333 1.202,-3.218l0,0l0,0q0,-3.12 -2.762,-4.42l0,0l0,0q-2.763,-1.3 -6.793,-1.3zm1.105,18.525l0,0l-19.435,0l0,13.455l19.76,0l0,0q4.615,0 7.605,-1.657l0,0l0,0q2.99,-1.658 2.99,-5.103l0,0l0,0q0,-2.6 -1.69,-4.03l0,0l0,0q-1.69,-1.43 -4.192,-2.047l0,0l0,0q-2.503,-0.618 -5.038,-0.618zm69.355,-12.675l-1.755,6.89l0,0q-1.43,-0.845 -3.51,-1.332l0,0l0,0q-2.08,-0.488 -3.965,-0.488l0,0l0,0q-3.9,0 -6.76,1.658l0,0l0,0q-2.86,1.657 -4.387,4.16l0,0l0,0q-1.528,2.502 -1.528,5.102l0,0l0,16.9l-6.76,0l0,-34.125l6.76,0l0,7.67l0,0q2.275,-3.705 5.98,-6.045l0,0l0,0q3.705,-2.34 7.67,-2.34l0,0l0,0q2.405,0 4.68,0.52l0,0l0,0q2.275,0.52 3.575,1.43l0,0l0,0zm25.285,-8.645l0,0l0,0q-2.275,0 -3.38,-1.17l0,0l0,0q-1.105,-1.17 -1.105,-3.055l0,0l0,0q0,-1.625 1.105,-2.925l0,0l0,0q1.105,-1.3 3.38,-1.3l0,0l0,0q2.275,0 3.38,1.17l0,0l0,0q1.105,1.17 1.105,3.055l0,0l0,0q0,1.625 -1.105,2.925l0,0l0,0q-1.105,1.3 -3.38,1.3zm3.315,7.41l0,34.125l-6.695,0l0,-34.125l6.695,0l0,0zm60.775,24.57l2.99,5.07l-0.065,0l0,0q-1.95,1.3 -4.875,2.503l0,0l0,0q-2.925,1.202 -6.435,1.917l0,0l0,0q-3.51,0.715 -7.215,0.715l0,0l0,0q-6.825,0 -12.057,-2.242l0,0l0,0q-5.233,-2.243 -8.19,-6.175l0,0l0,0q-2.958,-3.933 -2.958,-8.938l0,0l0,0q0,-4.29 1.788,-7.67l0,0l0,0q1.787,-3.38 4.94,-5.72l0,0l0,0q3.152,-2.34 7.247,-3.575l0,0l0,0q4.095,-1.235 8.645,-1.235l0,0l0,0q5.72,0 10.4,2.113l0,0l0,0q4.68,2.112 7.475,5.817l0,0l0,0q2.795,3.705 2.795,8.645l0,0l-0.065,3.51l-36.335,0l0,0q1.105,4.29 5.818,6.76l0,0l0,0q4.712,2.47 11.797,2.47l0,0l0,0q5.265,0 8.71,-1.365l0,0l0,0q3.445,-1.365 5.59,-2.6l0,0l0,0zm-16.185,-19.175l0,0l0,0q-3.9,0 -7.182,0.845l0,0l0,0q-3.283,0.845 -5.493,2.73l0,0l0,0q-2.21,1.885 -2.99,5.005l0,0l29.51,0l0,-1.105l0,0q-0.325,-2.21 -2.372,-3.9l0,0l0,0q-2.048,-1.69 -5.07,-2.632l0,0l0,0q-3.023,-0.943 -6.403,-0.943zm68.9,-4.16l0,6.175l-15.21,0l0,26.715l-6.11,0l0,-26.715l-8.06,0l0,-6.175l8.06,0l0,-1.17l0,0q0,-4.095 1.788,-7.247l0,0l0,0q1.787,-3.153 4.972,-4.94l0,0l0,0q3.185,-1.788 7.28,-1.788l0,0l0,0q3.575,0 5.98,0.975l0,0l0,0q2.405,0.975 3.445,1.885l0,0l-2.275,5.785l0,0q-1.17,-0.91 -2.925,-1.657l0,0l0,0q-1.755,-0.748 -3.445,-0.748l0,0l0,0q-3.25,0 -5.167,1.105l0,0l0,0q-1.918,1.105 -2.73,2.86l0,0l0,0q-0.813,1.755 -0.813,3.77l0,0l0,1.17l15.21,0l0,0z"/>
  <path stroke="#000000" fill="#000000" id="Path" d="m160.61,110.75l0,4.5l-97.11,0l0,-4.5l97.11,0z"/>
 </g>
</svg>