<?xml version="1.0" encoding="UTF-8" standalone="no"?><!-- Generator: Gravit.io --><svg xmlns="http://www.w3.org/2000/svg" xmlns:xlink="http://www.w3.org/1999/xlink" style="isolation:isolate" viewBox="0 0 470 125" width="470pt" height="125pt"><path d=" M 63.5 110.75 C 64.1 110.75 64.67 110.99 65.09 111.41 C 65.51 111.83 65.75 112.4 65.75 113 C 65.75 113.6 65.51 114.17 65.09 114.59 C 64.67 115.01 64.1 115.25 63.5 115.25 C 52.96 115.25 42.84 111.06 35.39 103.61 C 27.94 96.16 23.75 86.04 23.75 75.5 C 23.75 64.96 27.94 54.84 35.39 47.39 C 42.84 39.94 52.96 35.75 63.5 35.75 C 67.53 35.75 71.55 36.36 75.4 37.56 C 75.97 37.74 76.44 38.14 76.72 38.67 C 76.99 39.2 77.05 39.81 76.87 40.38 C 76.69 40.95 76.3 41.43 75.77 41.71 C 75.24 41.98 74.62 42.04 74.05 41.86 C 70.64 40.79 67.08 40.25 63.5 40.25 C 54.16 40.25 45.18 43.97 38.57 50.57 C 31.97 57.18 28.25 66.15 28.25 75.5 C 28.25 84.85 31.97 93.82 38.57 100.43 C 45.18 107.03 54.15 110.75 63.5 110.75 Z " id="Path" fill="rgb(255,255,255)"/><path d=" M 63.2 37.98 C 62.9 38.49 62.4 38.87 61.82 39.02 C 61.25 39.17 60.63 39.08 60.12 38.78 C 59.6 38.48 59.23 37.99 59.08 37.41 C 58.93 36.83 59.01 36.22 59.32 35.7 C 62.34 30.55 66.63 26.26 71.78 23.24 C 77.1 20.12 83.15 18.49 89.32 18.49 C 97.41 18.49 105.25 21.31 111.47 26.48 C 117.61 31.55 121.82 38.58 123.39 46.39 C 123.51 46.97 123.39 47.58 123.06 48.08 C 122.73 48.58 122.21 48.92 121.63 49.04 C 121.04 49.16 120.44 49.04 119.94 48.71 C 119.44 48.38 119.1 47.86 118.98 47.28 C 117.61 40.48 113.95 34.36 108.6 29.94 C 103.18 25.45 96.36 22.99 89.32 22.99 C 83.95 22.99 78.68 24.41 74.06 27.12 C 69.57 29.75 65.83 33.49 63.2 37.98 Z " id="Path" fill="rgb(255,255,255)"/><path d=" M 117.77 36.11 C 117.32 36.51 116.74 36.72 116.14 36.69 C 115.55 36.66 114.99 36.39 114.59 35.95 C 114.19 35.51 113.98 34.93 114.01 34.33 C 114.04 33.73 114.31 33.17 114.75 32.77 C 119.75 28.25 126.26 25.75 133.01 25.75 C 140.23 25.75 147.16 28.62 152.27 33.73 C 157.38 38.84 160.25 45.77 160.26 52.99 C 160.26 52.99 160.26 52.99 160.26 53 L 160.26 53 C 160.26 53.6 160.02 54.17 159.6 54.59 C 159.17 55.01 158.6 55.25 158.01 55.25 C 157.41 55.25 156.84 55.01 156.41 54.59 C 155.99 54.17 155.76 53.6 155.76 53 L 155.76 52.99 C 155.75 46.96 153.36 41.17 149.09 36.91 C 144.83 32.65 139.04 30.25 133.01 30.25 C 127.38 30.25 121.94 32.34 117.77 36.11 Z " id="Path" fill="rgb(255,255,255)"/><path d=" M 158.33 55.34 C 157.74 55.39 157.15 55.2 156.69 54.81 C 156.24 54.43 155.96 53.88 155.91 53.28 C 155.86 52.69 156.05 52.1 156.44 51.64 C 156.82 51.19 157.37 50.91 157.97 50.86 C 158.85 50.79 159.73 50.75 160.61 50.75 C 169.16 50.75 177.37 54.15 183.41 60.2 C 189.46 66.24 192.86 74.45 192.86 83 C 192.86 91.55 189.46 99.76 183.41 105.8 C 177.37 111.85 169.16 115.25 160.61 115.25 C 160.01 115.25 159.44 115.01 159.02 114.59 C 158.6 114.17 158.36 113.6 158.36 113 C 158.36 112.4 158.6 111.83 159.02 111.41 C 159.44 110.99 160.01 110.75 160.61 110.75 C 167.97 110.75 175.03 107.82 180.23 102.62 C 185.43 97.42 188.36 90.36 188.36 83 C 188.36 75.64 185.43 68.58 180.23 63.38 C 175.03 58.18 167.97 55.25 160.61 55.25 C 159.85 55.25 159.09 55.28 158.33 55.34 Z " id="Path" fill="rgb(255,255,255)"/><path d=" M 104.525 56.5 L 112.065 56.5 L 93.345 102 L 88.47 102 L 75.925 72.945 L 63.25 102 L 57.855 102 L 41.085 56.5 L 48.82 56.5 L 58.44 83.215 L 58.44 83.215 Q 59.09 85.1 59.773 87.18 L 59.773 87.18 L 59.773 87.18 Q 60.455 89.26 61.04 91.275 L 61.04 91.275 L 61.04 91.275 Q 61.82 89.26 62.698 87.18 L 62.698 87.18 L 62.698 87.18 Q 63.575 85.1 64.42 83.215 L 64.42 83.215 L 72.805 64.365 L 79.565 64.365 L 87.69 83.085 L 87.69 83.085 Q 88.47 84.905 89.348 86.985 L 89.348 86.985 L 89.348 86.985 Q 90.225 89.065 91.005 91.015 L 91.005 91.015 L 91.005 91.015 Q 91.655 88.935 92.37 86.79 L 92.37 86.79 L 92.37 86.79 Q 93.085 84.645 93.865 82.76 L 93.865 82.76 L 104.525 56.5 L 104.525 56.5 Z  M 137.35 102.065 L 127.86 102 L 145.02 83.995 L 129.095 67.875 L 139.17 67.875 L 150.48 80.42 L 162.7 67.875 L 172.255 67.875 L 154.835 84.84 L 172.775 102 L 162.96 102 L 149.375 88.415 L 137.35 102.065 L 137.35 102.065 Z " id="Compound Path" fill="rgb(255,255,255)"/><path d=" M 208.221 56.724 L 233.051 56.724 L 233.051 56.724 Q 241.631 56.724 245.986 59.649 L 245.986 59.649 L 245.986 59.649 Q 250.341 62.574 250.341 68.164 L 250.341 68.164 L 250.341 68.164 Q 250.341 71.219 248.554 73.657 L 248.554 73.657 L 248.554 73.657 Q 246.766 76.094 243.256 77.394 L 243.256 77.394 L 243.256 77.394 Q 245.791 78.174 247.936 79.604 L 247.936 79.604 L 247.936 79.604 Q 250.081 81.034 251.414 83.309 L 251.414 83.309 L 251.414 83.309 Q 252.746 85.584 252.746 88.834 L 252.746 88.834 L 252.746 88.834 Q 252.746 92.799 251.154 95.399 L 251.154 95.399 L 251.154 95.399 Q 249.561 97.999 246.929 99.494 L 246.929 99.494 L 246.929 99.494 Q 244.296 100.989 241.111 101.607 L 241.111 101.607 L 241.111 101.607 Q 237.926 102.224 234.741 102.224 L 234.741 102.224 L 208.221 102.224 L 208.221 56.724 L 208.221 56.724 Z  M 233.571 63.484 L 233.571 63.484 L 215.241 63.484 L 215.241 75.184 L 234.351 75.184 L 234.351 75.184 Q 236.691 75.119 238.706 74.437 L 238.706 74.437 L 238.706 74.437 Q 240.721 73.754 241.924 72.422 L 241.924 72.422 L 241.924 72.422 Q 243.126 71.089 243.126 69.204 L 243.126 69.204 L 243.126 69.204 Q 243.126 66.084 240.364 64.784 L 240.364 64.784 L 240.364 64.784 Q 237.601 63.484 233.571 63.484 Z  M 234.676 82.009 L 234.676 82.009 L 215.241 82.009 L 215.241 95.464 L 235.001 95.464 L 235.001 95.464 Q 239.616 95.464 242.606 93.807 L 242.606 93.807 L 242.606 93.807 Q 245.596 92.149 245.596 88.704 L 245.596 88.704 L 245.596 88.704 Q 245.596 86.104 243.906 84.674 L 243.906 84.674 L 243.906 84.674 Q 242.216 83.244 239.714 82.627 L 239.714 82.627 L 239.714 82.627 Q 237.211 82.009 234.676 82.009 Z  M 304.031 69.334 L 302.276 76.224 L 302.276 76.224 Q 300.846 75.379 298.766 74.892 L 298.766 74.892 L 298.766 74.892 Q 296.686 74.404 294.801 74.404 L 294.801 74.404 L 294.801 74.404 Q 290.901 74.404 288.041 76.062 L 288.041 76.062 L 288.041 76.062 Q 285.181 77.719 283.654 80.222 L 283.654 80.222 L 283.654 80.222 Q 282.126 82.724 282.126 85.324 L 282.126 85.324 L 282.126 102.224 L 275.366 102.224 L 275.366 68.099 L 282.126 68.099 L 282.126 75.769 L 282.126 75.769 Q 284.401 72.064 288.106 69.724 L 288.106 69.724 L 288.106 69.724 Q 291.811 67.384 295.776 67.384 L 295.776 67.384 L 295.776 67.384 Q 298.181 67.384 300.456 67.904 L 300.456 67.904 L 300.456 67.904 Q 302.731 68.424 304.031 69.334 L 304.031 69.334 L 304.031 69.334 Z  M 329.316 60.689 L 329.316 60.689 L 329.316 60.689 Q 327.041 60.689 325.936 59.519 L 325.936 59.519 L 325.936 59.519 Q 324.831 58.349 324.831 56.464 L 324.831 56.464 L 324.831 56.464 Q 324.831 54.839 325.936 53.539 L 325.936 53.539 L 325.936 53.539 Q 327.041 52.239 329.316 52.239 L 329.316 52.239 L 329.316 52.239 Q 331.591 52.239 332.696 53.409 L 332.696 53.409 L 332.696 53.409 Q 333.801 54.579 333.801 56.464 L 333.801 56.464 L 333.801 56.464 Q 333.801 58.089 332.696 59.389 L 332.696 59.389 L 332.696 59.389 Q 331.591 60.689 329.316 60.689 Z  M 332.631 68.099 L 332.631 102.224 L 325.936 102.224 L 325.936 68.099 L 332.631 68.099 L 332.631 68.099 Z  M 393.406 92.669 L 396.396 97.739 L 396.331 97.739 L 396.331 97.739 Q 394.381 99.039 391.456 100.242 L 391.456 100.242 L 391.456 100.242 Q 388.531 101.444 385.021 102.159 L 385.021 102.159 L 385.021 102.159 Q 381.511 102.874 377.806 102.874 L 377.806 102.874 L 377.806 102.874 Q 370.981 102.874 365.749 100.632 L 365.749 100.632 L 365.749 100.632 Q 360.516 98.389 357.559 94.457 L 357.559 94.457 L 357.559 94.457 Q 354.601 90.524 354.601 85.519 L 354.601 85.519 L 354.601 85.519 Q 354.601 81.229 356.389 77.849 L 356.389 77.849 L 356.389 77.849 Q 358.176 74.469 361.329 72.129 L 361.329 72.129 L 361.329 72.129 Q 364.481 69.789 368.576 68.554 L 368.576 68.554 L 368.576 68.554 Q 372.671 67.319 377.221 67.319 L 377.221 67.319 L 377.221 67.319 Q 382.941 67.319 387.621 69.432 L 387.621 69.432 L 387.621 69.432 Q 392.301 71.544 395.096 75.249 L 395.096 75.249 L 395.096 75.249 Q 397.891 78.954 397.891 83.894 L 397.891 83.894 L 397.826 87.404 L 361.491 87.404 L 361.491 87.404 Q 362.596 91.694 367.309 94.164 L 367.309 94.164 L 367.309 94.164 Q 372.021 96.634 379.106 96.634 L 379.106 96.634 L 379.106 96.634 Q 384.371 96.634 387.816 95.269 L 387.816 95.269 L 387.816 95.269 Q 391.261 93.904 393.406 92.669 L 393.406 92.669 L 393.406 92.669 Z  M 377.221 73.494 L 377.221 73.494 L 377.221 73.494 Q 373.321 73.494 370.039 74.339 L 370.039 74.339 L 370.039 74.339 Q 366.756 75.184 364.546 77.069 L 364.546 77.069 L 364.546 77.069 Q 362.336 78.954 361.556 82.074 L 361.556 82.074 L 391.066 82.074 L 391.066 80.969 L 391.066 80.969 Q 390.741 78.759 388.694 77.069 L 388.694 77.069 L 388.694 77.069 Q 386.646 75.379 383.624 74.437 L 383.624 74.437 L 383.624 74.437 Q 380.601 73.494 377.221 73.494 Z  M 446.121 69.334 L 446.121 75.509 L 430.911 75.509 L 430.911 102.224 L 424.801 102.224 L 424.801 75.509 L 416.741 75.509 L 416.741 69.334 L 424.801 69.334 L 424.801 68.164 L 424.801 68.164 Q 424.801 64.069 426.589 60.917 L 426.589 60.917 L 426.589 60.917 Q 428.376 57.764 431.561 55.977 L 431.561 55.977 L 431.561 55.977 Q 434.746 54.189 438.841 54.189 L 438.841 54.189 L 438.841 54.189 Q 442.416 54.189 444.821 55.164 L 444.821 55.164 L 444.821 55.164 Q 447.226 56.139 448.266 57.049 L 448.266 57.049 L 445.991 62.834 L 445.991 62.834 Q 444.821 61.924 443.066 61.177 L 443.066 61.177 L 443.066 61.177 Q 441.311 60.429 439.621 60.429 L 439.621 60.429 L 439.621 60.429 Q 436.371 60.429 434.454 61.534 L 434.454 61.534 L 434.454 61.534 Q 432.536 62.639 431.724 64.394 L 431.724 64.394 L 431.724 64.394 Q 430.911 66.149 430.911 68.164 L 430.911 68.164 L 430.911 69.334 L 446.121 69.334 L 446.121 69.334 Z " id="Compound Path" fill="rgb(255,255,255)"/><path d=" M 160.61 110.75 L 160.61 115.25 L 63.5 115.25 L 63.5 110.75 L 160.61 110.75 Z " id="Path" fill="rgb(255,255,255)"/></svg>